#!OML:ASF E:\CV Data\Top Level 1\Subject 1\Session 1\player.ASF
:FULLY-SPECIFIED
:DEGREES
1126
root 1.08768 17.5844 5.54806 13.7324 37.5341 -9.60244
lowerback 17.7439 4.69663 5.35703
upperback 1.73012 7.79353 5.4597
thorax -8.11816 3.69276 0.976491
lowerneck 3.81836 -18.2074 -18.9452
upperneck -18.6943 -22.8036 33.2377
head 0.710478 -12.4491 12.4599
rclavicle 1.11319e-013 1.27222e-014
rhumerus 353.236 355.3 630.077
rradius 24.9765
rwrist 6.61976
rhand -28.9286 4.08609
rfingers 7.12502
rthumb -2.28271 -25.8814
lclavicle 1.11319e-013 1.27222e-014
lhumerus -41.8628 -3.563 84.7818
lradius 46.8148
lwrist -9.60013
lhand -10.7909 5.8191
lfingers 7.12502
lthumb 15.2219 35.2391
rfemur -4.92789 -1.2787 7.28829
rtibia 57.4159
rfoot 5.92907 -12.5405
rtoes 11.6684
lfemur -44.9443 -8.79989 -11.8916
ltibia 28.1678
lfoot -0.770975 -23.8471
ltoes 10.7402
1127
root 1.05563 17.5872 5.55818 13.1335 37.2168 -9.83315
lowerback 17.7102 4.59978 5.09716
upperback 1.7866 7.60353 5.41682
thorax -8.06613 3.61218 1.12237
lowerneck 3.71645 -18.1834 -18.9774
upperneck -18.2396 -22.8476 33.315
head 0.881852 -12.4484 12.4394
rclavicle -1.19271e-013 -2.38542e-014
rhumerus 354.56 345.111 631.642
rradius 23.0432
rwrist 9.18321
rhand -32.2311 4.49693
rfingers 7.12502
rthumb -5.47184 -25.4124
lclavicle -1.19271e-013 -2.38542e-014
lhumerus -41.5972 -3.38711 84.9097
lradius 45.4022
lwrist -9.17916
lhand -9.77605 5.85407
lfingers 7.12502
lthumb 16.1993 35.1972
rfemur -5.45598 -1.1913 6.90408
rtibia 57.7128
rfoot 5.74385 -11.9477
rtoes 11.5119
lfemur -44.4539 -8.973 -11.4516
ltibia 28.2761
lfoot -0.974585 -23.2666
ltoes 9.97601
1128
root 1.02169 17.5896 5.56577 12.5334 36.9459 -10.0588
lowerback 17.6927 4.50595 4.86712
upperback 1.82275 7.42659 5.37197
thorax -8.03991 3.53554 1.24495
lowerneck 3.64307 -18.1852 -18.9663
upperneck -17.8097 -22.9233 33.3951
head 1.04407 -12.4683 12.4127
rclavicle -1.59028e-015 5.08889e-014
rhumerus 355.636 336.136 633.125
rradius 21.9224
rwrist 10.005
rhand -35.3559 5.22945
rfingers 7.12502
rthumb -8.48827 -24.5799
lclavicle -1.59028e-015 5.08889e-014
lhumerus -41.3126 -3.03921 84.9018
lradius 44.0874
lwrist -9.32304
lhand -8.51858 5.85197
lfingers 7.12502
lthumb 17.4098 35.0923
rfemur -5.97025 -1.2186 6.58352
rtibia 58.0185
rfoot 5.54191 -11.4605
rtoes 11.4359
lfemur -43.9688 -9.1527 -11.0311
ltibia 28.3708
lfoot -1.14664 -22.7395
ltoes 9.26601
1129
root 0.985243 17.5919 5.57232 11.9187 36.723 -10.2836
lowerback 17.6893 4.42072 4.64861
upperback 1.84928 7.26618 5.33365
thorax -8.0305 3.4659 1.36313
lowerneck 3.60561 -18.214 -18.9183
upperneck -17.4227 -23.0307 33.4901
head 1.19402 -12.5102 12.3859
rclavicle -3.10104e-014 -2.54444e-014
rhumerus 356.502 329.061 634.603
rradius 21.5307
rwrist 8.24319
rhand -38.1429 6.28944
rfingers 7.12502
rthumb -11.177 -23.3929
lclavicle -3.10104e-014 -2.54444e-014
lhumerus -41.0052 -2.52369 84.7565
lradius 42.8658
lwrist -10.1464
lhand -7.0512 5.74785
lfingers 7.12502
lthumb 18.8216 34.8573
rfemur -6.44402 -1.34574 6.34247
rtibia 58.3232
rfoot 5.3088 -11.1062
rtoes 11.3591
lfemur -43.4735 -9.30743 -10.6406
ltibia 28.4545
lfoot -1.29666 -22.301
ltoes 8.64208
1130
root 0.94584 17.5943 5.57828 11.29 36.5559 -10.5185
lowerback 17.686 4.34025 4.43603
upperback 1.86749 7.11597 5.31212
thorax -8.03102 3.40109 1.49362
lowerneck 3.61066 -18.2623 -18.8553
upperneck -17.0827 -23.161 33.6092
head 1.33201 -12.57 12.3675
rclavicle -1.04958e-013 0
rhumerus 357.154 324.018 636.168
rradius 21.7374
rwrist 3.89452
rhand -40.441 7.74384
rfingers 7.12502
rthumb -13.3929 -21.8057
lclavicle -1.04958e-013 0
lhumerus -40.6907 -1.84419 84.4847
lradius 41.7479
lwrist -11.6417
lhand -5.46656 5.53991
lfingers 7.12502
lthumb 20.3451 34.4942
rfemur -6.87616 -1.58043 6.19446
rtibia 58.6226
rfoot 5.05708 -10.8727
rtoes 11.2496
lfemur -42.981 -9.4197 -10.2754
ltibia 28.5332
lfoot -1.43174 -21.9749
ltoes 8.11534
1131
root 0.905916 17.5963 5.58461 10.6325 36.4075 -10.7709
lowerback 17.6643 4.27563 4.2425
upperback 1.89342 6.98993 5.30456
thorax -8.01185 3.34819 1.62471
lowerneck 3.66421 -18.3278 -18.7907
upperneck -16.8021 -23.3101 33.7641
head 1.45661 -12.6468 12.365
rclavicle 1.4392e-013 -1.11319e-014
rhumerus 357.592 320.797 637.898
rradius 22.3816
rwrist -2.6707
rhand -42.2376 9.76575
rfingers 7.12502
rthumb -15.124 -19.6617
lclavicle 1.4392e-013 -1.11319e-014
lhumerus -40.3718 -1.03913 84.1074
lradius 40.7415
lwrist -13.7113
lhand -3.85663 5.18842
lfingers 7.12502
lthumb 21.8916 33.9699
rfemur -7.25535 -1.89566 6.12487
rtibia 58.9079
rfoot 4.79551 -10.7214
rtoes 11.1041
lfemur -42.471 -9.51522 -9.91474
ltibia 28.6145
lfoot -1.56577 -21.694
ltoes 7.62373
1132
root 0.866834 17.5975 5.59101 9.93945 36.262 -11.0375
lowerback 17.6296 4.223 4.07911
upperback 1.93218 6.88505 5.30969
thorax -7.96913 3.30534 1.74922
lowerneck 3.76014 -18.4043 -18.7459
upperneck -16.5674 -23.4734 33.9532
head 1.57412 -12.7362 12.3802
rclavicle 5.56597e-014 -4.37326e-014
rhumerus 357.827 318.88 639.841
rradius 23.2852
rwrist -10.343
rhand -43.4257 12.0964
rfingers 7.12502
rthumb -16.2682 -17.2411
lclavicle 5.56597e-014 -4.37326e-014
lhumerus -40.0593 -0.133711 83.6518
lradius 39.8639
lwrist -16.1551
lhand -2.28836 4.73394
lfingers 7.12502
lthumb 23.3968 33.3317
rfemur -7.57354 -2.27796 6.12014
rtibia 59.1773
rfoot 4.52808 -10.6223
rtoes 11.0507
lfemur -41.9349 -9.61028 -9.55682
ltibia 28.7077
lfoot -1.70683 -21.426
ltoes 7.1434
1133
root 0.827641 17.598 5.59716 9.2382 36.1453 -11.3169
lowerback 17.5616 4.17807 3.95224
upperback 1.97067 6.79601 5.32287
thorax -7.90489 3.26957 1.86074
lowerneck 3.90499 -18.4932 -18.7146
upperneck -16.375 -23.6536 34.1685
head 1.68298 -12.84 12.4093
rclavicle 5.88403e-014 -3.65764e-014
rhumerus 357.879 317.776 641.996
rradius 24.2534
rwrist -17.9788
rhand -44.0131 14.2365
rfingers 7.12502
rthumb -16.8338 -15.0538
lclavicle 5.88403e-014 -3.65764e-014
lhumerus -39.7633 0.791548 83.1514
lradius 39.1323
lwrist -18.6988
lhand -0.836456 4.21802
lfingers 7.12502
lthumb 24.789 32.6315
rfemur -7.85234 -2.74983 6.18616
rtibia 59.4317
rfoot 4.26414 -10.56
rtoes 11.0717
lfemur -41.4148 -9.71847 -9.19424
ltibia 28.8174
lfoot -1.84867 -21.1799
ltoes 6.67384
